<svg xmlns="http://www.w3.org/2000/svg" viewBox="0 0 156.67 48.38"><title>logo</title><g id="レイヤー_2" data-name="レイヤー 2"><g id="レイヤー_1-2" data-name="レイヤー 1"><polygon points="16.32 29.04 16.13 29.04 6.77 2.88 0 2.88 13.44 36.86 18.67 36.86 32.3 2.88 25.78 2.88 16.32 29.04"/><path d="M50.54,26.5a8.17,8.17,0,0,1-.33,2.28,6.29,6.29,0,0,1-1,2,5,5,0,0,1-4,2,3.9,3.9,0,0,1-2.23-.58,4.11,4.11,0,0,1-1.32-1.46,5.86,5.86,0,0,1-.63-2,17.37,17.37,0,0,1-.14-2.11V13.82H35.09v14.4a12.52,12.52,0,0,0,.48,3.46,8.48,8.48,0,0,0,1.51,3,7.59,7.59,0,0,0,2.64,2.08,8.63,8.63,0,0,0,3.86.8,7.65,7.65,0,0,0,4.49-1.32,7.5,7.5,0,0,0,2.67-3h.09v3.69H56.3v-23H50.54Z"/><path d="M82,16.3a9.66,9.66,0,0,0-3.53-2.36,12.33,12.33,0,0,0-4.44-.79,13,13,0,0,0-4.82.89,11.23,11.23,0,0,0-3.86,2.5,11.39,11.39,0,0,0-2.57,3.88,13.12,13.12,0,0,0-.94,5.07,12.86,12.86,0,0,0,.94,5.06,10.66,10.66,0,0,0,2.59,3.77,11.73,11.73,0,0,0,3.91,2.38,14.05,14.05,0,0,0,5,.84q6.48,0,9.88-4.61L80.3,29.86A6.91,6.91,0,0,1,77.86,32a7.69,7.69,0,0,1-3.65.79,6.75,6.75,0,0,1-2.4-.43,7.28,7.28,0,0,1-2.07-1.18,5.82,5.82,0,0,1-1.46-1.77,5.63,5.63,0,0,1-.65-2.28H85.15a6.64,6.64,0,0,0,0-.77v-.77a16.09,16.09,0,0,0-.84-5.45A10.92,10.92,0,0,0,82,16.3ZM67.63,23a5.7,5.7,0,0,1,2-4A6.49,6.49,0,0,1,74,17.47a5.87,5.87,0,0,1,2.42.46,4.75,4.75,0,0,1,1.7,1.22,4.86,4.86,0,0,1,1,1.78A7.32,7.32,0,0,1,79.44,23Z"/><path d="M97.15,7.15H91.49v6.67h-4v4.61h4V29.18a15,15,0,0,0,.31,3.15A6.62,6.62,0,0,0,93,34.92a5.77,5.77,0,0,0,2.28,1.78,9.26,9.26,0,0,0,3.75.64,13,13,0,0,0,2-.16,10.24,10.24,0,0,0,1.82-.46l-.19-4.51a5,5,0,0,1-1.2.36,7.12,7.12,0,0,1-1.25.12c-1.27,0-2.1-.34-2.47-1a5.22,5.22,0,0,1-.55-2.54V18.43h5.76V13.82H97.15Z"/><path d="M110,2.54a3.54,3.54,0,0,0-2.61,1,3.28,3.28,0,0,0-1,2.42,3.28,3.28,0,0,0,1,2.42,3.54,3.54,0,0,0,2.61,1,3.8,3.8,0,0,0,2.67-1A3.19,3.19,0,0,0,113.76,6a3.19,3.19,0,0,0-1.08-2.47A3.8,3.8,0,0,0,110,2.54Z"/><rect x="107.18" y="13.82" width="5.76" height="23.04"/><path d="M126.62,10.08a11,11,0,0,1,.15-1.78,5.35,5.35,0,0,1,.55-1.68,3.23,3.23,0,0,1,1.17-1.24,3.8,3.8,0,0,1,2-.48,7.34,7.34,0,0,1,1.18.09c.36.07.71.15,1,.24L133.1.34a8.15,8.15,0,0,0-1.32-.27A14.53,14.53,0,0,0,130.17,0a10.41,10.41,0,0,0-4.46.84,7.55,7.55,0,0,0-2.86,2.28,8.9,8.9,0,0,0-1.53,3.34,16.52,16.52,0,0,0-.46,4v3.4h-4.37v4.61h4.37V36.86h5.76V18.43H132V13.82h-5.33Z"/><path d="M150.67,13.82,145,30.58h-.1l-6.43-16.76h-6.38l9.88,23-1.15,2.93q-.37.91-.72,1.59a4.51,4.51,0,0,1-.77,1.12,2.58,2.58,0,0,1-1,.68,4.9,4.9,0,0,1-1.54.21,7.64,7.64,0,0,1-1-.07,7,7,0,0,1-1.13-.26l-.48,5a10.38,10.38,0,0,0,1.51.26c.5,0,1,.07,1.47.07a11,11,0,0,0,3.29-.43,6.92,6.92,0,0,0,2.37-1.27,7.93,7.93,0,0,0,1.73-2.06,19.91,19.91,0,0,0,1.34-2.81l10.9-28Z"/></g></g></svg>